<svg width="400" height="400" viewBox="0 0 400 400" fill="none" xmlns="http://www.w3.org/2000/svg">
<!-- This is a placeholder - the actual logo would need to be converted from your image -->
<rect width="400" height="400" fill="#1a1a1a"/>
<g transform="translate(50, 150)">
  <!-- Lightning bolt D logo -->
  <path d="M0 0 L60 0 C90 0 110 20 110 50 L110 100 C110 130 90 150 60 150 L0 150 Z M20 20 L20 130 L60 130 C80 130 90 120 90 100 L90 50 C90 30 80 20 60 20 Z" fill="white"/>
  <!-- Lightning bolt -->
  <path d="M70 20 L90 20 L75 70 L85 70 L60 130 L70 80 L60 80 Z" fill="white"/>
  <!-- DEAL MACHINE text -->
  <text x="130" y="50" font-family="Arial, sans-serif" font-size="36" font-weight="bold" fill="white">DEAL MACHINE</text>
</g>
</svg>